<?xml version="1.0" encoding="utf-8"?>
<!-- Generator: Adobe Illustrator 16.0.0, SVG Export Plug-In . SVG Version: 6.00 Build 0)  -->
<!DOCTYPE svg PUBLIC "-//W3C//DTD SVG 1.1//EN" "http://www.w3.org/Graphics/SVG/1.1/DTD/svg11.dtd">
<svg version="1.1" id="Capa_1" xmlns="http://www.w3.org/2000/svg" xmlns:xlink="http://www.w3.org/1999/xlink" x="0px" y="0px"
	 width="155px" height="55px" viewBox="0 0 155 55" enable-background="new 0 0 155 55" xml:space="preserve">
<g>
	<g>
		<g>
			<path fill="#E5332A" stroke="#E5332A" stroke-width="0.9586" d="M19.27,12.604c0.64,0,1.246,0.127,1.818,0.38
				c0.574,0.253,1.072,0.592,1.499,1.018c0.425,0.429,0.765,0.927,1.019,1.5c0.253,0.571,0.38,1.177,0.38,1.818v10.465
				c0,0.668-0.126,1.288-0.38,1.858c-0.254,0.574-0.594,1.072-1.019,1.5c-0.427,0.426-0.925,0.766-1.499,1.019
				c-0.572,0.253-1.178,0.38-1.818,0.38H8.803c-0.667,0-1.286-0.127-1.857-0.38c-0.574-0.253-1.074-0.593-1.499-1.019
				c-0.427-0.428-0.766-0.926-1.02-1.5c-0.253-0.57-0.38-1.19-0.38-1.858V17.319v-0.162V5.227h2.876v7.737
				c0.56-0.239,1.185-0.36,1.878-0.36H19.27z M21.146,17.319c0-0.533-0.179-0.98-0.538-1.339c-0.358-0.36-0.806-0.541-1.339-0.541
				H8.803c-0.505,0-0.938,0.175-1.298,0.52c-0.359,0.348-0.553,0.773-0.58,1.279v0.081v10.465c0,0.534,0.18,0.98,0.54,1.339
				c0.36,0.361,0.805,0.541,1.338,0.541H19.27c0.533,0,0.98-0.18,1.339-0.541c0.359-0.358,0.538-0.805,0.538-1.339V17.319z"/>
			<path fill="#E3E3E6" stroke="#E3E3E6" stroke-width="0.2832" d="M28.339,8.86c-0.533,0-0.993-0.186-1.377-0.561
				c-0.388-0.371-0.579-0.824-0.579-1.357s0.191-0.99,0.579-1.378c0.385-0.386,0.844-0.579,1.377-0.579
				c0.532,0,0.984,0.193,1.358,0.579c0.372,0.388,0.559,0.845,0.559,1.378S30.069,7.929,29.697,8.3
				C29.323,8.675,28.871,8.86,28.339,8.86z"/>
			<path fill="#E3E3E6" stroke="#E3E3E6" stroke-width="0.2832" d="M58.249,8.86c-0.534,0-0.993-0.186-1.378-0.561
				c-0.388-0.371-0.579-0.824-0.579-1.357s0.191-0.99,0.579-1.378c0.385-0.386,0.844-0.579,1.378-0.579
				c0.532,0,0.984,0.193,1.358,0.579c0.372,0.388,0.559,0.845,0.559,1.378S59.979,7.929,59.607,8.3
				C59.232,8.675,58.78,8.86,58.249,8.86z"/>
			<path fill="#E3E3E6" stroke="#E3E3E6" stroke-width="0.2832" d="M26.901,14.246c0.015-1.145,0.884-1.33,1.496-1.33
				c0.488,0,1.363,0.21,1.382,1.33v18.578h-2.877V14.246z"/>
			<path fill="#E3E3E6" stroke="#E3E3E6" stroke-width="0.2832" d="M50.452,24.833c-0.359-0.348-0.793-0.52-1.299-0.52H38.606v-0.04
				c-0.64,0-1.239-0.127-1.799-0.38c-0.557-0.253-1.051-0.593-1.477-1.019c-0.427-0.425-0.766-0.918-1.019-1.478
				c-0.253-0.561-0.378-1.158-0.378-1.8v-0.04v-0.439v-1.516c0-1.175,0.239-2.085,0.717-2.736c0.479-0.654,1.026-1.126,1.64-1.42
				c0.691-0.347,1.49-0.546,2.397-0.601h10.466c0.641,0,1.252,0.127,1.839,0.38c0.585,0.254,1.091,0.593,1.517,1.021
				c0.427,0.426,0.768,0.933,1.021,1.517c0.253,0.587,0.379,1.198,0.379,1.84h-2.877c0-0.533-0.179-0.98-0.54-1.339
				c-0.358-0.36-0.805-0.541-1.338-0.541H38.687c-0.348,0.026-0.667,0.107-0.96,0.239c-0.24,0.135-0.454,0.329-0.64,0.582
				c-0.186,0.253-0.28,0.605-0.28,1.059v1.516v0.439c0,0.506,0.181,0.939,0.542,1.301c0.358,0.358,0.792,0.539,1.298,0.539v0.04
				h10.506c0.641,0,1.246,0.118,1.818,0.358c0.573,0.239,1.08,0.573,1.519,0.999c0.439,0.428,0.787,0.918,1.04,1.479
				c0.253,0.56,0.379,1.158,0.379,1.799v0.04v1.955c0,0.668-0.126,1.287-0.379,1.858c-0.253,0.574-0.594,1.072-1.021,1.5
				c-0.425,0.426-0.932,0.766-1.517,1.019c-0.587,0.253-1.198,0.38-1.839,0.38H38.687c-0.667,0-1.286-0.127-1.858-0.38
				c-0.574-0.253-1.073-0.593-1.499-1.019c-0.427-0.428-0.766-0.926-1.019-1.5c-0.253-0.571-0.378-1.19-0.378-1.858h2.875
				c0,0.534,0.181,0.98,0.542,1.339c0.358,0.361,0.805,0.541,1.338,0.541h10.466c0.533,0,0.98-0.18,1.338-0.541
				c0.361-0.358,0.54-0.805,0.54-1.339v-1.955C51.004,25.606,50.812,25.178,50.452,24.833z"/>
			<path fill="#E3E3E6" stroke="#E3E3E6" stroke-width="0.2832" d="M79.075,12.846c0.641,0,1.252,0.127,1.84,0.38
				c0.584,0.254,1.09,0.593,1.516,1.021c0.429,0.426,0.768,0.924,1.021,1.498c0.254,0.573,0.38,1.177,0.38,1.817v2.198
				c-0.026,0.638-0.175,1.23-0.438,1.777c-0.267,0.547-0.614,1.018-1.04,1.419c-0.425,0.398-0.918,0.717-1.479,0.956
				c-0.56,0.24-1.158,0.361-1.799,0.361H66.733v3.794c0,0.534,0.178,0.98,0.539,1.339c0.358,0.361,0.805,0.541,1.338,0.541h10.465
				c0.533,0,0.98-0.18,1.339-0.541c0.36-0.358,0.541-0.805,0.541-1.339h2.876c0,0.668-0.126,1.287-0.38,1.858
				c-0.253,0.574-0.592,1.072-1.021,1.5c-0.426,0.426-0.932,0.766-1.516,1.019c-0.588,0.253-1.199,0.38-1.84,0.38H68.61
				c-0.667,0-1.284-0.127-1.858-0.38c-0.573-0.253-1.072-0.593-1.497-1.019c-0.428-0.428-0.768-0.926-1.02-1.5
				c-0.253-0.571-0.379-1.19-0.379-1.858V17.603c0-0.642,0.126-1.253,0.379-1.84c0.252-0.584,0.591-1.091,1.02-1.517
				c0.425-0.428,0.924-0.767,1.497-1.021c0.574-0.253,1.192-0.38,1.858-0.38H79.075z M80.955,17.603c0-0.533-0.181-0.98-0.541-1.339
				c-0.358-0.36-0.806-0.541-1.339-0.541H68.61c-0.533,0-0.98,0.181-1.338,0.541c-0.361,0.358-0.539,0.806-0.539,1.339v3.795h12.342
				c0.506,0,0.939-0.173,1.301-0.521c0.358-0.345,0.552-0.772,0.579-1.279V17.603z"/>
			<path fill="#E3E3E6" stroke="#E3E3E6" stroke-width="0.2832" d="M102.748,24.833c-0.358-0.348-0.792-0.52-1.298-0.52H90.903
				v-0.04c-0.641,0-1.238-0.127-1.799-0.38s-1.053-0.593-1.479-1.019c-0.426-0.425-0.765-0.918-1.019-1.478
				c-0.253-0.561-0.379-1.158-0.379-1.8v-0.04v-0.439v-1.516c0-1.175,0.239-2.085,0.719-2.736c0.479-0.654,1.023-1.126,1.638-1.42
				c0.692-0.347,1.491-0.546,2.396-0.601h10.469c0.638,0,1.252,0.127,1.836,0.38c0.587,0.254,1.094,0.593,1.52,1.021
				c0.426,0.426,0.765,0.933,1.018,1.517c0.253,0.587,0.38,1.198,0.38,1.84h-2.876c0-0.533-0.181-0.98-0.539-1.339
				c-0.361-0.36-0.805-0.541-1.338-0.541H90.981c-0.345,0.026-0.665,0.107-0.959,0.239c-0.239,0.135-0.452,0.329-0.638,0.582
				c-0.188,0.253-0.28,0.605-0.28,1.059v1.516v0.439c0,0.506,0.181,0.939,0.538,1.301c0.361,0.358,0.792,0.539,1.299,0.539v0.04
				h10.509c0.638,0,1.244,0.118,1.817,0.358c0.571,0.239,1.08,0.573,1.519,0.999c0.439,0.428,0.784,0.918,1.037,1.479
				c0.253,0.56,0.38,1.158,0.38,1.799v0.04v1.955c0,0.668-0.127,1.287-0.38,1.858c-0.253,0.574-0.592,1.072-1.018,1.5
				c-0.426,0.426-0.933,0.766-1.52,1.019c-0.584,0.253-1.198,0.38-1.836,0.38H90.981c-0.665,0-1.284-0.127-1.858-0.38
				c-0.57-0.253-1.071-0.593-1.497-1.019c-0.426-0.428-0.765-0.926-1.019-1.5c-0.253-0.571-0.379-1.19-0.379-1.858h2.876
				c0,0.534,0.181,0.98,0.538,1.339c0.361,0.361,0.806,0.541,1.339,0.541h10.469c0.533,0,0.977-0.18,1.338-0.541
				c0.358-0.358,0.539-0.805,0.539-1.339v-1.955C103.3,25.606,103.108,25.178,102.748,24.833z"/>
			<path fill="#E3E3E6" stroke="#E3E3E6" stroke-width="0.2832" d="M111.477,4.979v8.228c0.293-0.135,0.578-0.234,0.858-0.302
				c0.28-0.064,0.579-0.097,0.899-0.097h0.122h15.221v2.873h-15.221c-0.533,0-0.98,0.184-1.339,0.542
				c-0.361,0.357-0.541,0.805-0.541,1.338v10.506c0,0.507,0.172,0.94,0.52,1.301c0.348,0.358,0.772,0.553,1.279,0.579h10.546
				c0.533,0,0.98-0.18,1.339-0.541c0.361-0.358,0.538-0.792,0.538-1.298h2.879c0,0.614-0.112,1.185-0.342,1.718
				c-0.226,0.533-0.524,1.013-0.896,1.438c-0.374,0.428-0.827,0.772-1.36,1.039s-1.091,0.426-1.678,0.479v0.041h-0.479h-10.546
				h-0.041c-0.638-0.027-1.238-0.168-1.796-0.421c-0.56-0.253-1.053-0.592-1.479-1.018c-0.428-0.429-0.76-0.927-0.999-1.5
				c-0.239-0.571-0.361-1.177-0.361-1.818V4.979H111.477z"/>
			<path fill="#E3E3E6" stroke="#E3E3E6" stroke-width="0.2832" d="M146.196,12.848c0.638-0.002,1.252,0.128,1.839,0.38
				c0.585,0.253,1.091,0.592,1.517,1.019c0.426,0.426,0.765,0.933,1.018,1.517c0.254,0.587,0.38,1.198,0.38,1.84l0.003,10.465
				c-0.003,0.667-0.129,1.286-0.383,1.86c-0.253,0.572-0.592,1.07-1.018,1.498c-0.426,0.425-0.935,0.766-1.519,1.019
				c-0.585,0.253-1.196,0.38-1.837,0.38l-10.469-0.002c-0.665,0-1.284-0.125-1.855-0.38c-0.573-0.253-1.074-0.592-1.5-1.018
				c-0.426-0.427-0.768-0.925-1.018-1.499c-0.256-0.571-0.38-1.19-0.38-1.858V17.603c0-0.64,0.127-1.253,0.377-1.84
				c0.253-0.584,0.595-1.092,1.021-1.517c0.426-0.427,0.924-0.766,1.498-1.019c0.573-0.253,1.192-0.38,1.857-0.382L146.196,12.848z
				 M148.073,17.6c0.003-0.53-0.181-0.977-0.539-1.336c-0.36-0.362-0.805-0.541-1.338-0.541l-10.469,0.002
				c-0.53-0.002-0.978,0.179-1.338,0.539c-0.358,0.358-0.539,0.806-0.539,1.339v10.465c0,0.534,0.181,0.98,0.539,1.342
				c0.36,0.358,0.805,0.538,1.338,0.537l10.469,0.001c0.533,0,0.978-0.179,1.338-0.538c0.358-0.361,0.539-0.806,0.539-1.339V17.6z"
				/>
			<path fill="#E3E3E6" stroke="#E3E3E6" stroke-width="0.2832" d="M56.814,14.236c0.014-1.143,0.885-1.331,1.498-1.331
				c0.487,0,1.363,0.21,1.379,1.331v18.576h-2.876V14.236z"/>
		</g>
		<g>
			<g>
				<path fill="#E5332A" stroke="#E5332A" stroke-width="0.5849" d="M75.145,44.807c-0.276,0-0.514-0.096-0.713-0.29
					c-0.199-0.192-0.3-0.427-0.3-0.703c0-0.275,0.101-0.514,0.3-0.713c0.2-0.2,0.437-0.301,0.713-0.301s0.51,0.101,0.704,0.301
					c0.193,0.199,0.29,0.438,0.29,0.713c0,0.276-0.097,0.511-0.29,0.703C75.655,44.711,75.421,44.807,75.145,44.807z"/>
				<g>
					<path fill="#E3E3E5" d="M3.793,41.012H6.84v0.533H4.283v1.972H6.84v0.489H4.283v2.017H6.84v0.489H3.793V41.012z"/>
					<path fill="#E3E3E5" d="M10.294,43.902h1.712v0.489h-1.712V43.902z"/>
					<path fill="#E3E3E5" d="M19.108,42.568l-0.015-0.015c-0.274-0.615-0.801-1.098-1.579-1.098c-0.986,0-1.586,0.593-1.586,2.328
						c0,1.097,0.386,2.327,1.586,2.327c0.763,0,1.215-0.512,1.579-1.187l0.015-0.015v0.815c-0.4,0.601-0.949,0.875-1.594,0.875
						c-1.572,0-2.076-1.46-2.076-2.839c0-2.513,1.356-2.84,2.076-2.84c0.4,0,1.097,0.075,1.594,0.831V42.568z"/>
					<path fill="#E3E3E5" d="M22.415,43.762c0-2.513,1.356-2.84,2.076-2.84c0.711,0,2.068,0.327,2.068,2.84
						c0,1.379-0.504,2.839-2.068,2.839C22.918,46.601,22.415,45.141,22.415,43.762z M26.069,43.784c0-1.735-0.6-2.328-1.579-2.328
						c-0.986,0-1.586,0.593-1.586,2.328c0,1.097,0.386,2.327,1.586,2.327C25.684,46.111,26.069,44.881,26.069,43.784z"/>
					<path fill="#E3E3E5" d="M30.065,41.012h0.786l1.646,5.011h0.015l1.624-5.011h0.786v5.5h-0.489v-4.803h-0.015l-1.608,4.803
						h-0.63l-1.608-4.803h-0.015v4.803h-0.489V41.012z"/>
					<path fill="#E3E3E5" d="M38.686,41.012h0.786l1.646,5.011h0.015l1.624-5.011h0.786v5.5h-0.489v-4.803h-0.015l-1.609,4.803
						h-0.63l-1.608-4.803h-0.015v4.803h-0.489V41.012z"/>
					<path fill="#E3E3E5" d="M47.3,41.012h3.047v0.533h-2.558v1.972h2.558v0.489h-2.558v2.017h2.558v0.489H47.3V41.012z"/>
					<path fill="#E3E3E5" d="M53.868,41.012h1.66c1.023,0,1.89,0.274,1.89,1.489c0,1.193-0.956,1.527-1.786,1.527h-0.497
						l2.379,2.483h-0.712l-2.446-2.661v2.661h-0.489V41.012z M54.357,43.584h1.186c0.712,0,1.386-0.178,1.386-1.03
						c0-0.652-0.296-1.009-1.282-1.009h-1.29V43.584z"/>
					<path fill="#E3E3E5" d="M64.261,42.568l-0.015-0.015c-0.274-0.615-0.801-1.098-1.579-1.098c-0.986,0-1.586,0.593-1.586,2.328
						c0,1.097,0.385,2.327,1.586,2.327c0.764,0,1.216-0.512,1.579-1.187l0.015-0.015v0.815c-0.4,0.601-0.949,0.875-1.594,0.875
						c-1.571,0-2.076-1.46-2.076-2.839c0-2.513,1.357-2.84,2.076-2.84c0.4,0,1.097,0.075,1.594,0.831V42.568z"/>
					<path fill="#E3E3E5" d="M67.819,41.012h3.046v0.533h-2.558v1.972h2.558v0.489h-2.558v2.017h2.558v0.489h-3.046V41.012z"/>
					<path fill="#E3E3E5" d="M78.642,45.259c0.326,0.549,0.793,0.853,1.453,0.853c0.541,0,1.089-0.438,1.089-1.119
						c0-1.564-2.668-0.481-2.668-2.602c0-0.949,0.749-1.469,1.579-1.469c0.548,0,1.015,0.186,1.46,0.564v0.756
						c-0.312-0.438-0.845-0.786-1.46-0.786c-0.557,0-1.09,0.386-1.09,0.979c0,1.571,2.669,0.489,2.669,2.602
						c0,1.046-0.904,1.564-1.579,1.564c-0.623,0-1.104-0.245-1.453-0.63V45.259z"/>
					<path fill="#E3E3E5" d="M84.794,43.762c0-2.513,1.357-2.84,2.076-2.84c0.711,0,2.067,0.327,2.067,2.84
						c0,1.379-0.504,2.839-2.067,2.839C85.298,46.601,84.794,45.141,84.794,43.762z M88.449,43.784c0-1.735-0.6-2.328-1.578-2.328
						c-0.986,0-1.587,0.593-1.587,2.328c0,1.097,0.386,2.327,1.587,2.327C88.064,46.111,88.449,44.881,88.449,43.784z"/>
					<path fill="#E3E3E5" d="M95.855,42.568l-0.015-0.015c-0.275-0.615-0.801-1.098-1.579-1.098c-0.986,0-1.587,0.593-1.587,2.328
						c0,1.097,0.386,2.327,1.587,2.327c0.764,0,1.216-0.512,1.579-1.187l0.015-0.015v0.815c-0.4,0.601-0.949,0.875-1.594,0.875
						c-1.572,0-2.075-1.46-2.075-2.839c0-2.513,1.356-2.84,2.075-2.84c0.4,0,1.097,0.075,1.594,0.831V42.568z"/>
					<path fill="#E3E3E5" d="M99.339,41.012h0.489v5.5h-0.489V41.012z"/>
					<path fill="#E3E3E5" d="M104.765,41.012h0.682l1.868,5.5h-0.548l-0.601-1.846h-2.105l-0.593,1.846h-0.549L104.765,41.012z
						 M105.114,41.412h-0.015l-0.89,2.809h1.809L105.114,41.412z"/>
					<path fill="#E3E3E5" d="M110.481,41.012h0.489v5.011h2.09v0.489h-2.58V41.012z"/>
					<path fill="#E3E3E5" d="M120.732,41.012h0.785l1.646,5.011h0.016l1.623-5.011h0.785v5.5H125.1v-4.803h-0.016l-1.609,4.803
						h-0.629l-1.609-4.803h-0.014v4.803h-0.49V41.012z"/>
					<path fill="#E3E3E5" d="M129.348,41.012h3.045v0.533h-2.557v1.972h2.557v0.489h-2.557v2.017h2.557v0.489h-3.045V41.012z"/>
					<path fill="#E3E3E5" d="M135.914,41.012h1.52c1.549,0,2.373,0.785,2.373,2.602c0,1.327-0.504,2.898-2.418,2.898h-1.475V41.012z
						 M136.404,46.022h1c1.609,0,1.912-1.401,1.912-2.424c0-1.394-0.594-2.054-1.785-2.054h-1.127V46.022z"/>
					<path fill="#E3E3E5" d="M143.23,41.012h0.49v5.5h-0.49V41.012z"/>
					<path fill="#E3E3E5" d="M148.656,41.012h0.684l1.867,5.5h-0.549l-0.6-1.846h-2.105l-0.594,1.846h-0.549L148.656,41.012z
						 M149.006,41.412h-0.016l-0.889,2.809h1.809L149.006,41.412z"/>
				</g>
			</g>
		</g>
	</g>
</g>
</svg>
